<svg width="57" height="63" viewBox="0 0 57 63" fill="none" xmlns="http://www.w3.org/2000/svg">
<g clip-path="url(#clip0_2014_166)">
<path d="M9.6857 12.348C12.7666 5.49555 19.8302 0.713379 28.0585 0.713379C36.2868 0.713379 43.3503 5.49555 46.4312 12.348C48.4852 12.5175 50.1008 14.1761 50.1008 16.21V23.9584C50.1008 25.9923 48.4852 27.6509 46.4312 27.8204C43.3503 34.6729 36.2868 39.455 28.0585 39.455C19.8302 39.455 12.7666 34.6729 9.6857 27.8204C7.63176 27.6509 6.01616 25.9923 6.01616 23.9584V16.21C6.01616 14.1761 7.63176 12.5175 9.6857 12.348ZM14.0315 18.1471V20.0842C14.0315 26.5008 19.4169 31.7067 26.0546 31.7067H30.0623C36.7 31.7067 42.0854 26.5008 42.0854 20.0842V18.1471C42.0854 14.9388 39.3927 12.3359 36.0738 12.3359H20.0431C16.7242 12.3359 14.0315 14.9388 14.0315 18.1471ZM32.4043 20.4111L33.1557 17.8445C33.2685 17.4449 33.6442 17.1786 34.07 17.1786C34.4958 17.1786 34.8715 17.4449 34.9843 17.8445L35.7357 20.4111L38.3908 21.1375C38.8041 21.2465 39.0796 21.6097 39.0796 22.0213C39.0796 22.4329 38.8041 22.7961 38.3908 22.9051L35.7357 23.6315L34.9843 26.1981C34.8715 26.5976 34.4958 26.864 34.07 26.864C33.6442 26.864 33.2685 26.5976 33.1557 26.1981L32.4043 23.6315L29.7492 22.9051C29.3359 22.7961 29.0604 22.4329 29.0604 22.0213C29.0604 21.6097 29.3359 21.2465 29.7492 21.1375L32.4043 20.4111ZM41.9977 39.0313C50.2636 42.1912 56.1123 49.9879 56.1123 59.1043C56.1123 61.0898 54.4466 62.7 52.3927 62.7H40.0815V54.9517C40.0815 52.8088 38.2906 51.0775 36.0738 51.0775H20.0431C17.8263 51.0775 16.0354 52.8088 16.0354 54.9517V62.7H3.72425C1.67031 62.7 0.00461578 61.0898 0.00461578 59.1043C0.00461578 49.9879 5.85334 42.1912 14.1192 39.0313C18.0518 41.7311 22.861 43.3292 28.0585 43.3292C33.2559 43.3292 38.0652 41.7311 41.9977 39.0313ZM34.07 54.9517C35.1721 54.9517 36.0738 55.8234 36.0738 56.8888V62.7H32.0662V56.8888C32.0662 55.8234 32.9679 54.9517 34.07 54.9517ZM22.0469 58.8259C21.5155 58.8259 21.0058 58.6218 20.63 58.2585C20.2542 57.8952 20.0431 57.4025 20.0431 56.8888C20.0431 56.375 20.2542 55.8823 20.63 55.519C21.0058 55.1558 21.5155 54.9517 22.0469 54.9517C22.5784 54.9517 23.0881 55.1558 23.4639 55.519C23.8397 55.8823 24.0508 56.375 24.0508 56.8888C24.0508 57.4025 23.8397 57.8952 23.4639 58.2585C23.0881 58.6218 22.5784 58.8259 22.0469 58.8259Z" fill="white"/>
</g>
<defs>
<clipPath id="clip0_2014_166">
<rect width="56.1077" height="61.9866" fill="white" transform="matrix(-1 0 0 1 56.1123 0.713379)"/>
</clipPath>
</defs>
</svg>
