<svg width="15" height="14" viewBox="0 0 15 14" fill="none" xmlns="http://www.w3.org/2000/svg">
<path d="M12.5384 7.00263C12.538 6.91629 12.5201 6.83091 12.4858 6.75166C12.4516 6.67241 12.4016 6.60092 12.3389 6.54151L8.69016 2.89276C8.54491 2.75363 8.39529 2.69238 8.23954 2.69238C7.88429 2.69238 7.62879 2.94263 7.62879 3.28126C7.62879 3.45888 7.70054 3.60938 7.81254 3.72051L9.06116 4.98663L10.672 6.45838L9.38404 6.38051H2.65179C2.27991 6.38051 2.02441 6.63601 2.02441 7.00263C2.02441 7.36401 2.27991 7.61951 2.65179 7.61951H9.38404L10.672 7.54076L9.06204 9.01338L7.81166 10.2795C7.75322 10.3367 7.70685 10.4051 7.67529 10.4805C7.64373 10.556 7.62762 10.637 7.62791 10.7188C7.62791 11.0574 7.88429 11.3076 8.23954 11.3076C8.39529 11.3076 8.54579 11.2464 8.67791 11.1186L12.3389 7.45851C12.401 7.3999 12.4506 7.32942 12.4849 7.25126C12.5191 7.1731 12.5373 7.08797 12.5384 7.00263Z" fill="white"/>
</svg>
