<svg width="53" height="49" viewBox="0 0 53 49" fill="none" xmlns="http://www.w3.org/2000/svg">
<g clip-path="url(#clip0_2059_6)">
<path d="M0.844141 4.28795C0.569922 3.91295 0.427734 3.46295 0.427734 3.01295C0.427734 1.73795 1.54492 0.706696 2.92617 0.706696H14.027C15.1645 0.706696 16.2309 1.25982 16.8098 2.15982L23.7668 12.8567C18.8715 13.4286 14.4941 15.5379 11.234 18.6598L0.844141 4.28795ZM52.0012 4.28795L41.6215 18.6598C38.3613 15.5379 33.984 13.4286 29.0887 12.8567L36.0457 2.15982C36.6348 1.25982 37.691 0.706696 38.8285 0.706696H49.9293C51.3105 0.706696 52.4277 1.73795 52.4277 3.01295C52.4277 3.46295 52.2855 3.91295 52.0113 4.28795H52.0012ZM8.55273 32.2067C8.55273 27.8306 10.436 23.6338 13.7882 20.5394C17.1404 17.4451 21.687 15.7067 26.4277 15.7067C31.1685 15.7067 35.7151 17.4451 39.0673 20.5394C42.4195 23.6338 44.3027 27.8306 44.3027 32.2067C44.3027 36.5828 42.4195 40.7796 39.0673 43.874C35.7151 46.9683 31.1685 48.7067 26.4277 48.7067C21.687 48.7067 17.1404 46.9683 13.7882 43.874C10.436 40.7796 8.55273 36.5828 8.55273 32.2067ZM27.2809 23.3098C26.9355 22.6536 25.9301 22.6536 25.5746 23.3098L23.2996 27.5661C23.1574 27.8286 22.8934 28.0067 22.5887 28.0442L17.4902 28.7286C16.7082 28.8317 16.4035 29.7129 16.9621 30.2286L20.6488 33.5473C20.8723 33.7536 20.9738 34.0348 20.923 34.3254L20.0496 39.0036C19.9176 39.7161 20.7301 40.2692 21.4309 39.9317L25.9809 37.7192C26.2551 37.5879 26.5902 37.5879 26.8645 37.7192L31.4145 39.9317C32.1152 40.2692 32.9277 39.7254 32.7957 39.0036L31.9223 34.3254C31.8715 34.0442 31.973 33.7536 32.1965 33.5473L35.8832 30.2286C36.452 29.7223 36.1371 28.8411 35.3551 28.7286L30.2668 28.0442C29.9621 28.0067 29.6879 27.8192 29.5559 27.5661L27.2809 23.3098Z" fill="white"/>
</g>
<defs>
<clipPath id="clip0_2059_6">
<rect width="52" height="48" fill="white" transform="translate(0.427734 0.706696)"/>
</clipPath>
</defs>
</svg>
