<svg width="56" height="62" viewBox="0 0 56 62" fill="none" xmlns="http://www.w3.org/2000/svg">
<path d="M9.6625 11.6371C12.7375 4.7832 19.7875 0 28 0C36.2125 0 43.2625 4.7832 46.3375 11.6371C48.3875 11.8066 50 13.4656 50 15.5V23.25C50 25.2844 48.3875 26.9434 46.3375 27.1129C43.2625 33.9668 36.2125 38.75 28 38.75C19.7875 38.75 12.7375 33.9668 9.6625 27.1129C7.6125 26.9434 6 25.2844 6 23.25V15.5C6 13.4656 7.6125 11.8066 9.6625 11.6371ZM14 17.4375V19.375C14 25.793 19.375 31 26 31H30C36.625 31 42 25.793 42 19.375V17.4375C42 14.2285 39.3125 11.625 36 11.625H20C16.6875 11.625 14 14.2285 14 17.4375ZM32.3375 19.702L33.0875 17.1348C33.2 16.7352 33.575 16.4688 34 16.4688C34.425 16.4688 34.8 16.7352 34.9125 17.1348L35.6625 19.702L38.3125 20.4285C38.725 20.5375 39 20.9008 39 21.3125C39 21.7242 38.725 22.0875 38.3125 22.1965L35.6625 22.923L34.9125 25.4902C34.8 25.8898 34.425 26.1562 34 26.1562C33.575 26.1562 33.2 25.8898 33.0875 25.4902L32.3375 22.923L29.6875 22.1965C29.275 22.0875 29 21.7242 29 21.3125C29 20.9008 29.275 20.5375 29.6875 20.4285L32.3375 19.702ZM41.9125 38.3262C50.1625 41.4867 56 49.2852 56 58.4035C56 60.3895 54.3375 62 52.2875 62H40V54.25C40 52.1066 38.2125 50.375 36 50.375H20C17.7875 50.375 16 52.1066 16 54.25V62H3.7125C1.6625 62 -4.76837e-07 60.3895 -4.76837e-07 58.4035C-4.76837e-07 49.2852 5.8375 41.4867 14.0875 38.3262C18.0125 41.0266 22.8125 42.625 28 42.625C33.1875 42.625 37.9875 41.0266 41.9125 38.3262ZM34 54.25C35.1 54.25 36 55.1219 36 56.1875V62H32V56.1875C32 55.1219 32.9 54.25 34 54.25ZM22 58.125C21.4696 58.125 20.9609 57.9209 20.5858 57.5575C20.2107 57.1942 20 56.7014 20 56.1875C20 55.6736 20.2107 55.1808 20.5858 54.8175C20.9609 54.4541 21.4696 54.25 22 54.25C22.5304 54.25 23.0391 54.4541 23.4142 54.8175C23.7893 55.1808 24 55.6736 24 56.1875C24 56.7014 23.7893 57.1942 23.4142 57.5575C23.0391 57.9209 22.5304 58.125 22 58.125Z" fill="white"/>
</svg>
