<svg width="68" height="69" viewBox="0 0 68 69" fill="none" xmlns="http://www.w3.org/2000/svg">
<g clip-path="url(#clip0_2014_170)">
<path d="M19.44 2.83856C19.44 1.67006 18.496 0.71402 17.3423 0.71402C16.1885 0.71402 15.2445 1.67006 15.2445 2.83856V4.9631H13.1467C11.9929 4.9631 11.0489 5.91915 11.0489 7.08765C11.0489 8.25614 11.9929 9.21219 13.1467 9.21219H15.2445V13.4613H8.45294C6.99761 13.4613 5.8045 14.6696 5.8045 16.1435C5.8045 16.4755 5.87006 16.7941 5.97494 17.1128L10.2361 28.3331H10.0001C8.25628 28.3331 6.85339 29.7539 6.85339 31.5199C6.85339 33.2859 8.25628 34.7067 10.0001 34.7067H10.5245L8.42672 51.703H26.2578L24.16 34.7067H24.6845C26.4283 34.7067 27.8312 33.2859 27.8312 31.5199C27.8312 29.7539 26.4283 28.3331 24.6845 28.3331H24.4485L28.7096 17.1128C28.8276 16.8074 28.88 16.4755 28.88 16.1435C28.88 14.6563 27.6869 13.4613 26.2316 13.4613H19.44V9.21219H21.5378C22.6916 9.21219 23.6356 8.25614 23.6356 7.08765C23.6356 5.91915 22.6916 4.9631 21.5378 4.9631H19.44V2.83856ZM6.85339 55.9521L1.18939 63.6005C0.782947 64.1582 0.560059 64.8221 0.560059 65.5126C0.560059 67.2786 1.96295 68.6994 3.70672 68.6994H30.9778C32.7216 68.6994 34.1245 67.2786 34.1245 65.5126C34.1245 64.8221 33.9016 64.1582 33.4951 63.6005L27.8312 55.9521H6.85339ZM44.6134 55.9521L38.9494 63.6005C38.5429 64.1582 38.32 64.8221 38.32 65.5126C38.32 67.2786 39.7229 68.6994 41.4667 68.6994H64.5422C66.286 68.6994 67.6889 67.2786 67.6889 65.5126C67.6889 64.8221 67.466 64.1582 67.0596 63.6005L61.3956 55.9521H44.6134ZM40.4178 28.3331V35.2245C40.4178 36.2603 40.7849 37.2561 41.4667 38.0263L45.0329 42.1426L44.7445 51.703H61.1989L60.7662 42.1426L64.4767 38.0528C65.1847 37.2694 65.5911 36.247 65.5911 35.1714V28.3331C65.5911 27.1646 64.6471 26.2085 63.4934 26.2085H61.3956C60.2418 26.2085 59.2978 27.1646 59.2978 28.3331V30.4576H56.1511V28.3331C56.1511 27.1646 55.2071 26.2085 54.0534 26.2085H51.9556C50.8018 26.2085 49.8578 27.1646 49.8578 28.3331V30.4576H46.7111V28.3331C46.7111 27.1646 45.7671 26.2085 44.6134 26.2085H42.5156C41.3618 26.2085 40.4178 27.1646 40.4178 28.3331ZM50.9067 41.0803C50.9067 39.9118 51.8507 38.9558 53.0045 38.9558C54.1582 38.9558 55.1022 39.9118 55.1022 41.0803V45.3294H50.9067V41.0803Z" fill="white"/>
</g>
<defs>
<clipPath id="clip0_2014_170">
<rect width="67.1288" height="67.9853" fill="white" transform="translate(0.560059 0.71402)"/>
</clipPath>
</defs>
</svg>
